<svg width="29" height="28" viewBox="0 0 29 28" fill="none" xmlns="http://www.w3.org/2000/svg">
<path d="M28.3975 8.25605C28.3818 7.08157 28.1616 5.91876 27.7466 4.81965C27.3868 3.89255 26.8372 3.05058 26.133 2.34753C25.4288 1.64448 24.5854 1.09582 23.6568 0.736594C22.57 0.329307 21.4219 0.10908 20.2613 0.0852899C18.767 0.0186088 18.2932 0 14.5 0C10.7069 0 10.2207 1.03984e-07 8.73728 0.0852899C7.5772 0.109255 6.4296 0.329479 5.3433 0.736594C4.41451 1.09557 3.57101 1.64415 2.86676 2.34723C2.16251 3.0503 1.61302 3.89241 1.25345 4.81965C0.844663 5.90381 0.624548 7.04976 0.60261 8.20798C0.535818 9.70132 0.515625 10.1743 0.515625 13.9612C0.515625 17.748 0.515625 18.2319 0.60261 19.7143C0.62591 20.8743 0.844926 22.0187 1.25345 23.1058C1.61362 24.0327 2.16352 24.8745 2.86801 25.5773C3.57249 26.2801 4.41608 26.8284 5.34485 27.1873C6.42818 27.6109 7.57598 27.8469 8.73883 27.8851C10.2347 27.9518 10.7084 27.9719 14.5016 27.9719C18.2948 27.9719 18.781 27.9719 20.2644 27.8851C21.4249 27.8623 22.5731 27.6426 23.6599 27.2353C24.5883 26.8757 25.4314 26.3269 26.1356 25.6239C26.8398 24.9209 27.3895 24.0791 27.7497 23.1523C28.1583 22.0668 28.3773 20.9224 28.4006 19.7609C28.4674 18.2691 28.4876 17.7961 28.4876 14.0077C28.4845 10.2208 28.4845 9.74009 28.3975 8.25605ZM14.4907 21.1224C10.5236 21.1224 7.30979 17.914 7.30979 13.9534C7.30979 9.99286 10.5236 6.78441 14.4907 6.78441C16.3952 6.78441 18.2217 7.53972 19.5684 8.88416C20.9151 10.2286 21.6717 12.0521 21.6717 13.9534C21.6717 15.8547 20.9151 17.6782 19.5684 19.0226C18.2217 20.3671 16.3952 21.1224 14.4907 21.1224ZM21.9575 8.19092C21.7375 8.19112 21.5197 8.14802 21.3164 8.06409C21.1132 7.98015 20.9285 7.85702 20.773 7.70175C20.6175 7.54648 20.4941 7.36211 20.41 7.1592C20.326 6.9563 20.2828 6.73883 20.283 6.51924C20.283 6.29981 20.3263 6.08254 20.4104 5.87981C20.4945 5.67709 20.6178 5.49289 20.7732 5.33773C20.9286 5.18257 21.1131 5.0595 21.3162 4.97553C21.5193 4.89156 21.7369 4.84834 21.9567 4.84834C22.1765 4.84834 22.3941 4.89156 22.5972 4.97553C22.8002 5.0595 22.9848 5.18257 23.1402 5.33773C23.2956 5.49289 23.4189 5.67709 23.503 5.87981C23.5871 6.08254 23.6304 6.29981 23.6304 6.51924C23.6304 7.44347 22.8817 8.19092 21.9575 8.19092Z" fill="white"/>
<path d="M14.4927 18.6105C17.0689 18.6105 19.1573 16.5256 19.1573 13.9537C19.1573 11.3818 17.0689 9.29688 14.4927 9.29688C11.9165 9.29688 9.82812 11.3818 9.82812 13.9537C9.82812 16.5256 11.9165 18.6105 14.4927 18.6105Z" fill="white"/>
</svg>
