<svg width="29" height="28" viewBox="0 0 29 28" fill="none" xmlns="http://www.w3.org/2000/svg">
<path d="M26.9601 0.484375H2.07118C1.65862 0.484375 1.26296 0.64241 0.971237 0.923715C0.679513 1.20502 0.515625 1.58655 0.515625 1.98438V25.9844C0.515625 26.3822 0.679513 26.7637 0.971237 27.045C1.26296 27.3263 1.65862 27.4844 2.07118 27.4844H26.9601C27.3726 27.4844 27.7683 27.3263 28.06 27.045C28.3517 26.7637 28.5156 26.3822 28.5156 25.9844V1.98438C28.5156 1.58655 28.3517 1.20502 28.06 0.923715C27.7683 0.64241 27.3726 0.484375 26.9601 0.484375ZM8.82074 23.4899H4.66429V10.6049H8.82074V23.4899ZM6.74251 8.84538C6.10387 8.84538 5.49139 8.60074 5.0398 8.16528C4.58821 7.72982 4.33451 7.13921 4.33451 6.52338C4.33451 5.90754 4.58821 5.31693 5.0398 4.88147C5.49139 4.44601 6.10387 4.20138 6.74251 4.20138C7.38116 4.20138 7.99364 4.44601 8.44523 4.88147C8.89681 5.31693 9.15051 5.90754 9.15051 6.52338C9.15051 7.13921 8.89681 7.72982 8.44523 8.16528C7.99364 8.60074 7.38116 8.84538 6.74251 8.84538ZM24.3747 23.4899H20.223V17.2244C20.223 15.7304 20.195 13.8089 18.0638 13.8089C15.9016 13.8089 15.5734 15.4379 15.5734 17.1194V23.4914H11.4247V10.6064H15.407V12.3674H15.4645C16.0167 11.3549 17.3732 10.2869 19.3907 10.2869C23.597 10.2869 24.3732 12.9539 24.3732 16.4249L24.3747 23.4899Z" fill="white"/>
</svg>
